<?xml version="1.0" encoding="UTF-8" standalone="no"?><!DOCTYPE svg PUBLIC "-//W3C//DTD SVG 1.1//EN" "http://www.w3.org/Graphics/SVG/1.1/DTD/svg11.dtd"><svg width="100%" height="100%" viewBox="0 0 1080 1080" version="1.1" xmlns="http://www.w3.org/2000/svg" xmlns:xlink="http://www.w3.org/1999/xlink" xml:space="preserve" xmlns:serif="http://www.serif.com/" style="fill-rule:evenodd;clip-rule:evenodd;stroke-linejoin:round;stroke-miterlimit:1.41421;"><g id="drizzle"><g><g opacity="0.5"><circle id="sun_center" cx="703.25" cy="497.25" r="114.113" style="fill:url(#_Linear1);"/><g id="sun_rays"><g><path d="M723.174,193.674c0,-10.996 -8.927,-19.924 -19.924,-19.924c-10.997,0 -19.924,8.928 -19.924,19.924l0,122.445c0,10.997 8.927,19.924 19.924,19.924c10.997,0 19.924,-8.927 19.924,-19.924l0,-122.445Z" style="fill:url(#_Linear2);"/><path d="M723.174,678.381c0,-10.997 -8.927,-19.924 -19.924,-19.924c-10.997,0 -19.924,8.927 -19.924,19.924l0,122.445c0,10.996 8.927,19.924 19.924,19.924c10.997,0 19.924,-8.928 19.924,-19.924l0,-122.445Z" style="fill:url(#_Linear3);"/></g><g><path d="M1006.83,517.174c10.996,0 19.924,-8.927 19.924,-19.924c0,-10.997 -8.928,-19.924 -19.924,-19.924l-122.445,0c-10.997,0 -19.924,8.927 -19.924,19.924c0,10.997 8.927,19.924 19.924,19.924l122.445,0Z" style="fill:url(#_Linear4);"/><path d="M522.119,517.174c10.997,0 19.924,-8.927 19.924,-19.924c0,-10.997 -8.927,-19.924 -19.924,-19.924l-122.445,0c-10.996,0 -19.924,8.927 -19.924,19.924c0,10.997 8.928,19.924 19.924,19.924l122.445,0Z" style="fill:url(#_Linear5);"/></g><g><path d="M931.999,296.678c7.776,-7.775 7.776,-20.401 0,-28.177c-7.776,-7.776 -20.402,-7.776 -28.177,0l-86.582,86.581c-7.775,7.776 -7.775,20.402 0,28.178c7.776,7.775 20.402,7.775 28.178,0l86.581,-86.582Z" style="fill:url(#_Linear6);"/><path d="M589.26,639.418c7.775,-7.776 7.775,-20.402 0,-28.178c-7.776,-7.775 -20.402,-7.775 -28.178,0l-86.581,86.582c-7.776,7.775 -7.776,20.401 0,28.177c7.776,7.776 20.402,7.776 28.177,0l86.582,-86.581Z" style="fill:url(#_Linear7);"/></g><g><path d="M903.822,725.999c7.775,7.776 20.401,7.776 28.177,0c7.776,-7.776 7.776,-20.402 0,-28.177l-86.581,-86.582c-7.776,-7.775 -20.402,-7.775 -28.178,0c-7.775,7.776 -7.775,20.402 0,28.178l86.582,86.581Z" style="fill:url(#_Linear8);"/><path d="M561.082,383.26c7.776,7.775 20.402,7.775 28.178,0c7.775,-7.776 7.775,-20.402 0,-28.178l-86.582,-86.581c-7.775,-7.776 -20.401,-7.776 -28.177,0c-7.776,7.776 -7.776,20.402 0,28.177l86.581,86.582Z" style="fill:url(#_Linear9);"/></g></g></g></g><g><path d="M942.25,581.75c0,-28.424 -23.076,-51.5 -51.5,-51.5l-703,0c-28.424,0 -51.5,23.076 -51.5,51.5c0,28.424 23.076,51.5 51.5,51.5l703,0c28.424,0 51.5,-23.076 51.5,-51.5Z" style="fill:url(#_Linear10);"/><path d="M859.25,717.75c0,-28.424 -23.076,-51.5 -51.5,-51.5l-703,0c-28.424,0 -51.5,23.076 -51.5,51.5c0,28.424 23.076,51.5 51.5,51.5l703,0c28.424,0 51.5,-23.076 51.5,-51.5Z" style="fill:url(#_Linear11);"/><path d="M943.25,854.75c0,-28.424 -23.076,-51.5 -51.5,-51.5l-703,0c-28.424,0 -51.5,23.076 -51.5,51.5c0,28.424 23.076,51.5 51.5,51.5l703,0c28.424,0 51.5,-23.076 51.5,-51.5Z" style="fill:url(#_Linear12);"/></g></g><defs><linearGradient id="_Linear1" x1="0" y1="0" x2="1" y2="0" gradientUnits="userSpaceOnUse" gradientTransform="matrix(562.997,0,0,562.997,453.274,584.883)"><stop offset="0" style="stop-color:#f6ff00;stop-opacity:1"/><stop offset="1" style="stop-color:#ff9100;stop-opacity:1"/></linearGradient><linearGradient id="_Linear2" x1="0" y1="0" x2="1" y2="0" gradientUnits="userSpaceOnUse" gradientTransform="matrix(867.927,0,0,647,249.362,453.416)"><stop offset="0" style="stop-color:#f6ff00;stop-opacity:1"/><stop offset="1" style="stop-color:#ff9100;stop-opacity:1"/></linearGradient><linearGradient id="_Linear3" x1="0" y1="0" x2="1" y2="0" gradientUnits="userSpaceOnUse" gradientTransform="matrix(867.927,0,0,647,249.362,938.123)"><stop offset="0" style="stop-color:#f6ff00;stop-opacity:1"/><stop offset="1" style="stop-color:#ff9100;stop-opacity:1"/></linearGradient><linearGradient id="_Linear4" x1="0" y1="0" x2="1" y2="0" gradientUnits="userSpaceOnUse" gradientTransform="matrix(5.31452e-14,867.927,-647,3.96173e-14,747.084,43.3622)"><stop offset="0" style="stop-color:#f6ff00;stop-opacity:1"/><stop offset="1" style="stop-color:#ff9100;stop-opacity:1"/></linearGradient><linearGradient id="_Linear5" x1="0" y1="0" x2="1" y2="0" gradientUnits="userSpaceOnUse" gradientTransform="matrix(5.31452e-14,867.927,-647,3.96173e-14,262.377,43.3622)"><stop offset="0" style="stop-color:#f6ff00;stop-opacity:1"/><stop offset="1" style="stop-color:#ff9100;stop-opacity:1"/></linearGradient><linearGradient id="_Linear6" x1="0" y1="0" x2="1" y2="0" gradientUnits="userSpaceOnUse" gradientTransform="matrix(613.717,613.717,-457.498,457.498,413.298,145.308)"><stop offset="0" style="stop-color:#f6ff00;stop-opacity:1"/><stop offset="1" style="stop-color:#ff9100;stop-opacity:1"/></linearGradient><linearGradient id="_Linear7" x1="0" y1="0" x2="1" y2="0" gradientUnits="userSpaceOnUse" gradientTransform="matrix(613.717,613.717,-457.498,457.498,70.5586,488.047)"><stop offset="0" style="stop-color:#f6ff00;stop-opacity:1"/><stop offset="1" style="stop-color:#ff9100;stop-opacity:1"/></linearGradient><linearGradient id="_Linear8" x1="0" y1="0" x2="1" y2="0" gradientUnits="userSpaceOnUse" gradientTransform="matrix(-613.717,613.717,-457.498,-457.498,1055.19,207.298)"><stop offset="0" style="stop-color:#f6ff00;stop-opacity:1"/><stop offset="1" style="stop-color:#ff9100;stop-opacity:1"/></linearGradient><linearGradient id="_Linear9" x1="0" y1="0" x2="1" y2="0" gradientUnits="userSpaceOnUse" gradientTransform="matrix(-613.717,613.717,-457.498,-457.498,712.453,-135.441)"><stop offset="0" style="stop-color:#f6ff00;stop-opacity:1"/><stop offset="1" style="stop-color:#ff9100;stop-opacity:1"/></linearGradient><linearGradient id="_Linear10" x1="0" y1="0" x2="1" y2="0" gradientUnits="userSpaceOnUse" gradientTransform="matrix(858.681,0,0,108.735,136.25,581.75)"><stop offset="0" style="stop-color:#fff;stop-opacity:1"/><stop offset="1" style="stop-color:#ededed;stop-opacity:1"/></linearGradient><linearGradient id="_Linear11" x1="0" y1="0" x2="1" y2="0" gradientUnits="userSpaceOnUse" gradientTransform="matrix(858.681,0,0,108.735,53.25,717.75)"><stop offset="0" style="stop-color:#fff;stop-opacity:1"/><stop offset="1" style="stop-color:#ededed;stop-opacity:1"/></linearGradient><linearGradient id="_Linear12" x1="0" y1="0" x2="1" y2="0" gradientUnits="userSpaceOnUse" gradientTransform="matrix(858.681,0,0,108.735,137.25,854.75)"><stop offset="0" style="stop-color:#fff;stop-opacity:1"/><stop offset="1" style="stop-color:#ededed;stop-opacity:1"/></linearGradient></defs></svg>