<?xml version="1.0" encoding="UTF-8" standalone="no"?><!DOCTYPE svg PUBLIC "-//W3C//DTD SVG 1.1//EN" "http://www.w3.org/Graphics/SVG/1.1/DTD/svg11.dtd"><svg width="100%" height="100%" viewBox="0 0 1080 1080" version="1.1" xmlns="http://www.w3.org/2000/svg" xmlns:xlink="http://www.w3.org/1999/xlink" xml:space="preserve" xmlns:serif="http://www.serif.com/" style="fill-rule:evenodd;clip-rule:evenodd;stroke-linejoin:round;stroke-miterlimit:1.41421;"><path d="M583,133.5c0,-11.866 -9.634,-21.5 -21.5,-21.5l-43,0c-11.866,0 -21.5,9.634 -21.5,21.5l0,813c0,11.866 9.634,21.5 21.5,21.5l43,0c11.866,0 21.5,-9.634 21.5,-21.5l0,-813Z" style="fill:url(#_Linear1);"/><path d="M946.5,583c11.866,0 21.5,-9.634 21.5,-21.5l0,-43c0,-11.866 -9.634,-21.5 -21.5,-21.5l-813,0c-11.866,0 -21.5,9.634 -21.5,21.5l0,43c0,11.866 9.634,21.5 21.5,21.5l813,0Z" style="fill:url(#_Linear2);"/><path d="M540,234.5c168.61,0 305.5,136.89 305.5,305.5c0,168.61 -136.89,305.5 -305.5,305.5c-168.61,0 -305.5,-136.89 -305.5,-305.5c0,-168.61 136.89,-305.5 305.5,-305.5Zm0,76.375c126.458,0 229.125,102.667 229.125,229.125c0,126.458 -102.667,229.125 -229.125,229.125c-126.458,0 -229.125,-102.667 -229.125,-229.125c0,-126.458 102.667,-229.125 229.125,-229.125Z" style="fill:url(#_Linear3);"/><defs><linearGradient id="_Linear1" x1="0" y1="0" x2="1" y2="0" gradientUnits="userSpaceOnUse" gradientTransform="matrix(86,0,0,856,497,540)"><stop offset="0" style="stop-color:#a8ff78;stop-opacity:1"/><stop offset="1" style="stop-color:#78ffd6;stop-opacity:1"/></linearGradient><linearGradient id="_Linear2" x1="0" y1="0" x2="1" y2="0" gradientUnits="userSpaceOnUse" gradientTransform="matrix(5.26598e-15,86,-856,5.24149e-14,540,497)"><stop offset="0" style="stop-color:#a8ff78;stop-opacity:1"/><stop offset="1" style="stop-color:#78ffd6;stop-opacity:1"/></linearGradient><linearGradient id="_Linear3" x1="0" y1="0" x2="1" y2="0" gradientUnits="userSpaceOnUse" gradientTransform="matrix(611,0,0,611,234.5,540)"><stop offset="0" style="stop-color:#a8ff78;stop-opacity:1"/><stop offset="1" style="stop-color:#78ffd6;stop-opacity:1"/></linearGradient></defs></svg>