<?xml version="1.0" encoding="UTF-8" standalone="no"?><!DOCTYPE svg PUBLIC "-//W3C//DTD SVG 1.1//EN" "http://www.w3.org/Graphics/SVG/1.1/DTD/svg11.dtd"><svg width="100%" height="100%" viewBox="0 0 1080 1080" version="1.1" xmlns="http://www.w3.org/2000/svg" xmlns:xlink="http://www.w3.org/1999/xlink" xml:space="preserve" xmlns:serif="http://www.serif.com/" style="fill-rule:evenodd;clip-rule:evenodd;stroke-linejoin:round;stroke-miterlimit:1.41421;"><g><path d="M861.415,222.121c109.273,109.274 109.273,286.706 0,395.98c-109.274,109.273 -286.707,109.273 -395.98,0c-109.274,-109.274 -109.274,-286.706 0,-395.98c109.273,-109.274 286.706,-109.274 395.98,0Zm-61.884,61.883c75.119,75.12 75.119,197.094 0,272.213c-75.119,75.119 -197.093,75.119 -272.213,0c-75.119,-75.119 -75.119,-197.093 0,-272.213c75.12,-75.119 197.094,-75.119 272.213,0Z" style="fill:url(#_Linear1);"/><path d="M516.347,630.829l-70.711,-70.711l-309.006,309.006l70.711,70.71l309.006,-309.005Z" style="fill:url(#_Linear2);"/></g><defs><linearGradient id="_Linear1" x1="0" y1="0" x2="1" y2="0" gradientUnits="userSpaceOnUse" gradientTransform="matrix(632.153,632.153,-703.571,703.571,329.317,358.239)"><stop offset="0" style="stop-color:#fff;stop-opacity:1"/><stop offset="1" style="stop-color:#ededed;stop-opacity:1"/></linearGradient><linearGradient id="_Linear2" x1="0" y1="0" x2="1" y2="0" gradientUnits="userSpaceOnUse" gradientTransform="matrix(632.153,632.153,-703.571,703.571,329.317,358.239)"><stop offset="0" style="stop-color:#fff;stop-opacity:1"/><stop offset="1" style="stop-color:#ededed;stop-opacity:1"/></linearGradient></defs></svg>